<svg viewBox="0 0 101 18" fill="currentColor" xmlns="http://www.w3.org/2000/svg">
<path d="M6.52457 13.305C2.66426 13.305 0.284363 10.7751 0.284363 6.67122C0.284363 2.56729 2.66426 0 6.52457 0C10.3849 0 12.7835 2.56729 12.7835 6.67122C12.7835 10.7751 10.3849 13.305 6.52457 13.305ZM6.52457 11.2061C8.82952 11.2061 10.1975 9.50086 10.1975 6.67122C10.1975 3.84157 8.82952 2.09881 6.52457 2.09881C4.21963 2.09881 2.8704 3.82283 2.8704 6.67122C2.8704 9.50086 4.21963 11.2061 6.52457 11.2061Z" fill="currentColor"/>
<path d="M16.3605 17.1465H13.9619V2.97956H16.3605V4.12266C16.9977 3.20443 17.8972 2.69847 19.0028 2.69847C21.6263 2.69847 23.2379 4.70358 23.2379 7.98297C23.2379 11.3935 21.5888 13.305 19.0028 13.305C17.8972 13.305 16.9789 12.8365 16.3605 11.937V17.1465ZM18.5718 4.68484C17.1289 4.68484 16.3605 5.84668 16.3605 7.98297C16.3605 10.1193 17.1663 11.3186 18.5718 11.3186C19.996 11.3186 20.7643 10.138 20.7643 7.98297C20.7643 5.86542 19.9772 4.68484 18.5718 4.68484Z" fill="currentColor"/>
<path d="M33.3926 9.74447C32.8491 12.0682 31.0502 13.305 28.6515 13.305C25.6157 13.305 23.7605 11.2998 23.7605 8.02045C23.7605 4.60989 25.6345 2.69847 28.5578 2.69847C31.4999 2.69847 33.3176 4.68484 33.3176 7.92675V8.48893H26.2341C26.3466 10.3254 27.1899 11.3373 28.6515 11.3373C29.7759 11.3373 30.5442 10.8126 30.8628 9.74447H33.3926ZM28.5578 4.6661C27.2835 4.6661 26.5152 5.4719 26.2904 6.98979H30.8066C30.5817 5.49064 29.8134 4.6661 28.5578 4.6661Z" fill="currentColor"/>
<path d="M34.3681 13.0239V2.97956H36.7667V4.32879C37.4226 3.24191 38.472 2.69847 39.7463 2.69847C41.7514 2.69847 43.1193 3.89779 43.1193 6.33391V13.0239H40.7207V6.82113C40.7207 5.45316 40.1398 4.68484 38.9217 4.68484C37.5912 4.68484 36.7667 5.84668 36.7667 7.19592V13.0239H34.3681Z" fill="currentColor"/>
<path d="M48.0845 13.0239V2.36116H43.9806V0.281091H54.7183V2.36116H50.6144V13.0239H48.0845Z" fill="currentColor"/>
<path d="M55.8227 17.4276C55.3355 17.4276 54.8295 17.2964 54.5859 17.2027V15.3663H55.1481C56.235 15.3663 56.741 15.1414 57.5093 13.23L57.7529 12.6116L53.7989 2.97956H56.3662L58.5962 8.8075L59.0084 10.2692L59.4207 8.8075L61.557 2.97956H64.0118L59.5893 14.017C58.5587 16.6218 57.6592 17.4276 55.8227 17.4276Z" fill="currentColor"/>
<path d="M66.8544 17.1465H64.4557V2.97956H66.8544V4.12266C67.4915 3.20443 68.391 2.69847 69.4966 2.69847C72.1201 2.69847 73.7317 4.70358 73.7317 7.98297C73.7317 11.3935 72.0826 13.305 69.4966 13.305C68.391 13.305 67.4728 12.8365 66.8544 11.937V17.1465ZM69.0656 4.68484C67.6227 4.68484 66.8544 5.84668 66.8544 7.98297C66.8544 10.1193 67.6602 11.3186 69.0656 11.3186C70.4898 11.3186 71.2581 10.138 71.2581 7.98297C71.2581 5.86542 70.4711 4.68484 69.0656 4.68484Z" fill="currentColor"/>
<path d="M79.0704 13.305C76.0908 13.305 74.2544 11.2998 74.2544 8.02045C74.2544 4.60989 76.147 2.69847 79.0704 2.69847C82.0312 2.69847 83.8677 4.72232 83.8677 8.02045C83.8677 11.3935 81.975 13.305 79.0704 13.305ZM79.0704 11.3186C80.5883 11.3186 81.3941 10.1567 81.3941 8.02045C81.3941 5.88416 80.5695 4.68484 79.0704 4.68484C77.5338 4.68484 76.728 5.86542 76.728 8.02045C76.728 10.138 77.5525 11.3186 79.0704 11.3186Z" fill="currentColor"/>
<path d="M86.3235 7.92675V1.91142H83.9999V0.281091H90.6149V1.91142H88.2912V7.92675H86.3235ZM91.4581 7.92675V0.281091H94.0629L95.5621 4.55367L95.8994 5.8092L96.2554 4.55367L97.7546 0.281091H100.284V7.92675H98.3167L98.4292 2.49234L97.8295 4.47871L96.5927 7.92675H95.1498L93.8942 4.44123L93.3321 2.52982L93.4445 7.92675H91.4581Z" fill="currentColor"/>
</svg>
